# xmcd
#
# Track frame offsets:
#	150
#	13613
#	39111
#	54637
#	69895
#	85556
#	101445
#	116057
#	130205
#	144845
#	166292
#	177953
#
# Disc length: 2648 seconds
#
# Revision: 1
# Processed by: cddbd v1.5.2PL0 Copyright (c) Steve Scherf et al.
# Submitted via: audiograbber 1.83.01
#
DISCID=8d0a560c
DTITLE=Oscar Ovidio - El Triunfo en Las Manos
DYEAR=2004
DGENRE=Country
TTITLE0=Consejo de un Padre
TTITLE1=El Chino Millan
TTITLE2=Almas Prisioneras
TTITLE3=Corrido de Nahaman
TTITLE4=Corrido de Amabilia
TTITLE5=Lo Mejor de la Vida
TTITLE6=El Triunfo en las Manos
TTITLE7=Un Día a la Vez
TTITLE8=Coros
TTITLE9=El Relato de la Radio
TTITLE10=La Puerta es Cristo
TTITLE11=Mexicano Mojado
EXTD=
EXTT0=
EXTT1=
EXTT2=
EXTT3=
EXTT4=
EXTT5=
EXTT6=
EXTT7=
EXTT8=
EXTT9=
EXTT10=
EXTT11=
PLAYORDER=
